<svg xmlns="http://www.w3.org/2000/svg" height="800" width="1200" viewBox="-37.08945 -68.698 321.4419 412.188"><path d="M156.224 274.692c0-.104.995-2.54 2.21-5.415 1.215-2.874 2.21-5.529 2.21-5.9 0-.37-1.99-5.869-4.42-12.218-2.43-6.35-4.42-11.772-4.42-12.049 0-.334 1.166-.503 3.459-.503h3.458l2.8 8.728c1.54 4.8 2.865 8.53 2.945 8.286.08-.243 1.307-4.12 2.727-8.618l2.581-8.175 3.61-.129c1.986-.07 3.611-.045 3.611.057 0 .268-11.242 30.069-12.53 33.217l-1.086 2.651-3.578.129c-1.967.07-3.577.043-3.577-.061zM8.762 265.126c-3.535-.743-6.04-2.655-7.812-5.964-.827-1.543-.95-2.49-.95-7.297 0-6.057.483-7.638 3.16-10.346 2.914-2.948 8.916-3.987 14.628-2.532l2.32.592v5.752l-1.215-.313c-2.402-.62-5.67-.903-7.497-.649-3.36.467-4.988 2.914-4.988 7.496 0 4.453 1.485 6.803 4.764 7.54 1.58.355 3.78.143 7.743-.745l1.238-.278-.133 2.775c-.133 2.767-.138 2.777-1.776 3.342-2.23.77-7.23 1.1-9.482.627zm43.564.017c-3.727-.678-5.9-2.325-7.318-5.55-.64-1.454-.806-3.443-.949-11.374l-.173-9.612h6.665l.136 9.025c.132 8.784.163 9.054 1.178 10.134 2.023 2.15 7.126 1.784 8.33-.598.393-.777.56-3.692.565-9.833l.006-8.728h6.629v8.98c0 10.285-.442 12.645-2.812 15.015-2.26 2.26-7.65 3.378-12.256 2.54zm57.716.23c-.243-.098-1.16-.297-2.036-.443-2.547-.424-5.39-2.594-6.827-5.213-1.134-2.065-1.296-2.852-1.44-6.968-.137-3.897-.015-5.035.761-7.099 1.843-4.895 5.46-7.21 11.31-7.237 1.944-.01 4.58.25 5.855.574l2.32.592v5.752l-1.215-.313c-2.402-.62-5.669-.903-7.497-.649-3.36.467-4.988 2.914-4.988 7.496 0 7.063 3.646 9.057 12.496 6.835l1.204-.302v5.736l-2.053.517c-2.216.558-7.17 1.011-7.89.722zm99.4-26.935c-3.019-.007-3.96.182-6.08 1.22-4.463 2.183-6.168 5.557-6.168 12.206 0 7.738 2.89 11.974 9.034 13.245 2.411.5 7.178.13 9.216-.714 4.319-1.789 6.629-6.156 6.629-12.53 0-5.087-1.049-8.063-3.7-10.507-2.426-2.236-4.486-2.91-8.931-2.92zm-.023 5.531c.26.006.529.022.809.05 3.672.352 5.21 2.669 5.21 7.845 0 3.23-.638 5.366-1.98 6.626-1.544 1.451-5.214 1.715-7.127.512-1.785-1.123-2.377-2.923-2.377-7.217 0-5.602 1.577-7.905 5.465-7.816zm-183.462 8.448l.117-12.264 2.326-.771c1.279-.424 4.312-.902 6.74-1.06l4.413-.29v5.814l-2.54.276c-1.399.152-2.99.369-3.536.482l-.995.207v19.87H25.84zm46.741 1.193c0-12.022.17-13.01 2.416-14.032 3.63-1.654 12.906-1.74 16.024-.15 4.124 2.105 4.541 3.532 4.541 15.516v9.737h-6.187v-8.331c0-4.677-.204-8.914-.464-9.662-.597-1.711-2.023-2.336-5.331-2.336-4.6 0-4.37-.559-4.37 10.622v9.707h-6.629zm52.149-6.828v-17.898h7.071v10.071l1.657-.384c2.363-.55 4.44-.494 7.067.187 3.153.818 5.178 2.326 6.619 4.93 1.21 2.188 1.224 2.306 1.38 11.602l.158 9.39h-6.717l-.004-7.844c0-4.314-.21-8.59-.463-9.5-.593-2.138-2.2-2.984-5.664-2.984-4.35 0-4.035-.813-4.035 10.433v9.896h-7.071v-17.899zm56.229 5.635l.118-12.264 2.325-.771c1.28-.424 4.312-.902 6.74-1.06l4.414-.29v5.814l-2.542.276c-1.397.152-2.988.369-3.535.482l-.994.207v19.87h-6.643zm45.858-5.635v-17.898h7.071v35.797h-7.071zm13.7 0v-17.898h6.629v35.797h-6.629z" fill="#3c3a39"/><path d="M113.577 207.8c-3.539-.33-12.851-1.943-16.306-2.825-29.863-7.625-55.153-28.074-68.537-55.418-7.337-14.99-10.395-28.396-10.383-45.52.012-17.144 3.117-30.818 10.335-45.52 5.407-11.01 11.625-19.636 20.453-28.37C65.653 13.812 86.57 3.698 110.263.596c7.746-1.014 24.143-.684 31.377.631 15.046 2.737 28.553 8.112 40.658 16.178 25.15 16.76 41.461 42.39 45.714 71.828.91 6.303 1.438 19.42.824 20.515-.334.598-.508-.028-.727-2.62-1.086-12.843-6.642-28.373-14.307-39.991-23.298-35.313-66.767-50.295-107.013-36.883-31.064 10.352-54.41 36.615-60.818 68.416-3.168 15.725-2.218 31.139 2.86 46.355 8.953 26.836 30.382 48.274 57.559 57.584 6.409 2.196 14.64 4.026 20.067 4.461 6.5.522 4.862 1.018-3.157.956-4.375-.033-8.75-.135-9.723-.225z" fill="#f78b24"/><path d="M135.895 194.826c-33.593-2.447-61.427-27.495-67.236-60.507-1.057-6.008-1.26-17.24-.413-22.769 5.037-32.827 30.288-57.733 63.23-62.362 6.677-.938 18.575-.61 24.97.69 5.562 1.13 11.728 3.138 16.572 5.394l3.756 1.75-3.535 1.669c-12.759 6.025-20.633 20.118-18.785 33.619 1.851 13.52 11.2 24.13 24.622 27.945 4.832 1.374 12.22 1.373 17.055 0 6.25-1.777 11.152-4.682 15.613-9.254 1.506-1.544 2.835-2.648 2.953-2.455.119.194.463 2.322.765 4.73.746 5.939.308 17.238-.886 22.88-3.803 17.967-13.386 33.049-28.08 44.192-13.907 10.546-32.304 15.81-50.6 14.478z" fill="#f78b24"/></svg>