<svg xmlns="http://www.w3.org/2000/svg" fill="white" height="800" width="1200" viewBox="-89.9994 -26 779.9948 156"><path d="M73.9 103.5H46.2V64H28.3v39.4H0V1.7h28.3v38h17.9v-38h27.7zm126.8.4c28.3 0 51.4-23.6 51.4-52.2C252.1 22.5 229 0 200.7 0 172 0 157.5 20.9 154 29.3c0-12.6-12.6-27.7-27.2-27.7H79.6v101.8h44c17.9 0 30.5-15.3 30.5-28.7 3.9 8.4 17.9 29.2 46.6 29.2zM120 62.6c4.1 0 7.4 4 7.4 8.5 0 4.8-3.3 8.7-7.4 8.7h-14V62.6zm0-38.2c4.1 0 7.4 4 7.4 8.5s-3.3 8.5-7.4 8.5h-14v-17zm18.6 27.3c3.3-.2 8.6-4 10.7-6.2-.8 2.7-.8 11.3 0 14-2.3-3.3-7.4-7.3-10.7-7.8zm36.3 0c0-14.3 11.6-25.9 26-25.8 14.4.1 25.9 11.8 25.7 26.2-.2 14.2-11.7 25.6-25.8 25.6-14.4-.1-25.9-11.6-25.9-26zm25.8 20.4c11 0 20.3-9.1 20.3-20.4 0-11.3-9.3-20.3-20.3-20.3-11.3 0-20.4 9-20.4 20.3s9.1 20.4 20.4 20.4zm199.2-34.4C399.4 13.1 382 0 360.6 0c-11.8 0-22.3 3.9-29.5 11.6C323.8 3.9 313.3 0 301.5 0c-21.4 0-38.8 13.1-39.4 37.8v56.4c0 5.2 4.2 9.4 9.4 9.4h8.8c.9 0 1.6-.7 1.6-1.6V38c.4-12.2 9-18.6 19.6-18.6 10.6 0 19.3 6.4 19.6 18.6v56.2c0 5.2 4.2 9.4 9.4 9.4h8.8c.9 0 1.6-.7 1.6-1.6V38c.4-12.2 9-18.6 19.6-18.6 10.6 0 19.3 6.4 19.6 18.6v56.2c0 5.2 4.2 9.4 9.4 9.4h8.8c.9 0 1.6-.7 1.6-1.6V38c.1-.1 0-.2 0-.3zm198.9-36h-15c-4.1 0-8 2.1-10.3 5.5l-16.6 24.6c-2.2 3.2-6.9 3.2-9 0L531.3 7.2c-2.3-3.4-6.2-5.5-10.3-5.5h-15c-.9 0-1.5 1-1 1.8l29.6 43.9c2.1 3.2 2.1 7.3 0 10.5L505 101.7c-.5.8 0 1.8 1 1.8h15c4.1 0 8-2.1 10.3-5.5l16.6-24.6c2.2-3.2 6.9-3.2 9 0L573.5 98c2.3 3.4 6.2 5.5 10.3 5.5h15c.9 0 1.5-1 1-1.8l-29.6-43.9c-2.1-3.2-2.1-7.3 0-10.5l29.6-43.9c.5-.7 0-1.7-1-1.7zm-100.6 0h-8.8c-4.5 0-8.2 3.2-9.1 7.4-7.9-6-17.7-9-28.4-9C425.9 0 405 18 405 52s21 52 46.8 52c10.6 0 20.4-3 28.2-8.9.4 4.8 4.4 8.5 9.3 8.5h8.8c.9 0 1.6-.7 1.6-1.6V3.2c0-.8-.7-1.5-1.5-1.5zm-46.4 82.9c-15.4 0-28-11.3-28-32.6s12.5-32.6 28-32.6 28 11.3 28 32.6-12.5 32.6-28 32.6z"/></svg>