<svg xmlns="http://www.w3.org/2000/svg" enable-background="new 0 0 32 32" viewBox="0 0 32 32"><path d="M2 9.76001h5.31c.83002 0 1.5-.67004 1.5-1.5v-5.31c0-.83002-.66998-1.5-1.5-1.5H2c-.83002 0-1.5.66998-1.5 1.5v5.31C.5 9.08997 1.16998 9.76001 2 9.76001zM30 4.10254H12.83057c-.82861 0-1.5.67188-1.5 1.5s.67139 1.5 1.5 1.5H30c.82813 0 1.5-.67188 1.5-1.5S30.82813 4.10254 30 4.10254zM.5 18.65997c0 .82001.66998 1.5 1.5 1.5h5.31c.83002 0 1.5-.67999 1.5-1.5v-5.32001c0-.82001-.66998-1.5-1.5-1.5H2c-.83002 0-1.5.67999-1.5 1.5V18.65997zM30 14.5H12.83057c-.82861 0-1.5.67188-1.5 1.5s.67139 1.5 1.5 1.5H30c.82813 0 1.5-.67188 1.5-1.5S30.82813 14.5 30 14.5zM.5 29.04999c0 .83002.66998 1.5 1.5 1.5h5.31c.83002 0 1.5-.66998 1.5-1.5v-5.31c0-.83002-.66998-1.5-1.5-1.5H2c-.83002 0-1.5.66998-1.5 1.5V29.04999zM30 24.89746H12.83057c-.82861 0-1.5.67188-1.5 1.5s.67139 1.5 1.5 1.5H30c.82813 0 1.5-.67188 1.5-1.5S30.82813 24.89746 30 24.89746z"/></svg>