<svg width="512" height="520" viewBox="0 0 512 520" fill="white" xmlns="http://www.w3.org/2000/svg">
<g id="popcorn-svgrepo-com 1" clip-path="url(#clip0)" filter="url(#filter0_d)">
<g id="Group">
<g id="Group_2">
<path id="Vector" d="M256 0C247.453 0 240.132 5.354 237.216 12.884C236.233 13.267 235.283 13.726 234.373 14.257C230.346 12.445 225.983 11.506 221.483 11.506C214.299 11.506 207.461 13.95 201.982 18.24C198.292 14.111 192.927 11.506 186.966 11.506C178.427 11.506 171.111 16.85 168.19 24.369C163.375 26.24 159.452 29.912 157.253 34.553C157.202 34.553 157.152 34.553 157.102 34.553C150.344 34.553 143.666 37.171 138.741 42.094C137.307 43.528 136.06 45.117 135.014 46.822C133.225 46.299 131.35 46.022 129.438 46.022C120.899 46.022 113.583 51.366 110.662 58.885C103.143 61.807 97.798 69.123 97.798 77.662C97.798 88.764 106.83 97.797 117.933 97.797C122.7 97.797 126.562 93.933 126.562 89.168C126.562 84.403 122.7 80.539 117.933 80.539C116.346 80.539 115.057 79.248 115.057 77.663C115.057 76.078 116.347 74.787 117.933 74.787C122.7 74.787 126.562 70.923 126.562 66.158C126.562 64.572 127.852 63.282 129.438 63.282C130.773 63.282 131.654 64.139 132.032 64.941C133.791 68.662 137.934 70.62 141.928 69.624C145.922 68.624 148.653 64.944 148.453 60.833C148.332 58.347 149.216 56.027 150.944 54.3C153.443 51.801 157.309 51.092 160.566 52.536C163.417 53.802 166.727 53.428 169.226 51.561C171.725 49.695 173.023 46.626 172.62 43.534C172.584 43.259 172.583 43.159 172.583 43.149C172.583 41.564 173.873 40.273 175.459 40.273C180.226 40.273 184.088 36.409 184.088 31.644C184.088 30.058 185.378 28.768 186.964 28.768C188.551 28.768 189.84 30.059 189.84 31.644C189.84 36.41 193.702 40.273 198.469 40.273C198.684 40.273 198.918 40.306 199.186 40.375C202.996 41.358 206.986 39.641 208.892 36.202C211.432 31.616 216.256 28.767 221.48 28.767C224.596 28.767 227.576 29.769 230.095 31.664C231.928 33.041 234.232 33.638 236.502 33.309C238.772 32.985 240.819 31.771 242.192 29.934C242.454 29.583 243.205 28.766 244.49 28.766C249.257 28.766 253.119 24.902 253.119 20.137C253.119 18.552 254.409 17.261 255.995 17.261C257.582 17.261 258.871 18.552 258.871 20.137C258.871 24.903 262.733 28.766 267.5 28.766C272.267 28.766 276.129 24.902 276.129 20.137C276.135 9.033 267.102 0 256 0Z" fill="white"/>
</g>
</g>
<g id="Group_3">
<g id="Group_4">
<path id="Vector_2" d="M437.214 123.684C437.214 115.145 431.869 107.829 424.35 104.907C422.305 99.644 418.107 95.447 412.844 93.401C412.258 91.894 411.497 90.474 410.583 89.167C412.862 85.904 414.203 81.936 414.203 77.661C414.203 69.122 408.858 61.806 401.339 58.884C398.418 51.365 391.102 46.021 382.563 46.021C380.65 46.021 378.773 46.297 376.982 46.82C375.937 45.115 374.69 43.526 373.255 42.092C368.296 37.13 361.554 34.476 354.748 34.551C352.548 29.911 348.626 26.238 343.811 24.367C340.89 16.848 333.574 11.504 325.035 11.504C319.074 11.504 313.709 14.108 310.019 18.238C304.539 13.948 297.702 11.504 290.518 11.504C285.751 11.504 281.889 15.368 281.889 20.133C281.889 24.898 285.751 28.762 290.518 28.762C295.743 28.762 300.566 31.611 303.106 36.197C305.011 39.637 309.004 41.354 312.812 40.37C313.08 40.301 313.315 40.268 313.529 40.268C318.296 40.268 322.158 36.404 322.158 31.639C322.158 30.054 323.448 28.763 325.034 28.763C326.62 28.763 327.91 30.054 327.91 31.639C327.91 36.405 331.772 40.268 336.539 40.268C338.126 40.268 339.415 41.559 339.415 43.144C339.415 43.154 339.414 43.257 339.378 43.533C338.975 46.626 340.274 49.695 342.773 51.562C345.274 53.428 348.586 53.8 351.436 52.533C354.686 51.091 358.551 51.796 361.049 54.296C362.778 56.025 363.662 58.348 363.538 60.838C363.331 64.955 366.065 68.642 370.064 69.642C374.064 70.641 378.21 68.673 379.965 64.943C380.342 64.139 381.224 63.28 382.561 63.28C384.148 63.28 385.437 64.571 385.437 66.156C385.437 70.922 389.299 74.785 394.066 74.785C395.653 74.785 396.942 76.076 396.942 77.661C396.942 79.247 395.652 80.537 394.066 80.537C389.299 80.537 385.437 84.401 385.437 89.166C385.437 93.931 389.299 97.795 394.066 97.795C395.653 97.795 396.942 99.086 396.942 100.671C396.942 105.437 400.804 109.3 405.571 109.3C407.158 109.3 408.447 110.591 408.447 112.176C408.447 116.942 412.309 120.805 417.076 120.805C418.663 120.805 419.952 122.096 419.952 123.681C419.952 125.266 418.662 126.557 417.076 126.557C412.309 126.557 408.447 130.421 408.447 135.186C408.447 136.303 407.828 137.015 407.46 137.341C405.601 138.979 404.535 141.338 404.535 143.815C404.535 146.292 405.6 148.652 407.46 150.289C407.828 150.615 408.447 151.326 408.447 152.444C408.447 153.562 407.828 154.273 407.46 154.599C403.885 157.749 403.539 163.202 406.689 166.778C408.394 168.714 410.776 169.703 413.168 169.703C415.194 169.703 417.228 168.993 418.869 167.548C423.214 163.72 425.706 158.215 425.706 152.445C425.706 149.428 425.025 146.485 423.756 143.816C423.968 143.372 424.162 142.92 424.34 142.461C431.865 139.544 437.214 132.227 437.214 123.684Z" fill="white"/>
</g>
</g>
<g id="Group_5">
<g id="Group_6">
<path id="Vector_3" d="M417.881 200.052C413.198 199.153 408.678 202.216 407.778 206.897L354.667 483.073C353.813 487.515 350.948 491.146 347.135 493.121L400.977 191.609C401.246 191.756 401.512 191.91 401.772 192.076C405.79 194.634 411.126 193.45 413.685 189.429C416.244 185.408 415.056 180.075 411.036 177.516C405.966 174.29 400.098 172.585 394.068 172.585C394.016 172.585 393.964 172.588 393.913 172.588C393.866 172.589 393.82 172.59 393.773 172.591C385.39 172.667 377.532 175.974 371.617 181.931C371.268 182.283 370.848 182.283 370.5 181.931C364.561 175.949 356.663 172.639 348.241 172.588C348.204 172.587 348.166 172.586 348.129 172.586C348.101 172.586 348.074 172.584 348.046 172.584C339.551 172.584 331.578 175.903 325.593 181.931C325.244 182.283 324.824 182.283 324.476 181.931C318.491 175.903 310.517 172.584 302.023 172.584C301.913 172.584 301.803 172.591 301.694 172.592C301.68 172.592 301.665 172.592 301.651 172.593C293.297 172.689 285.468 175.992 279.571 181.931C279.222 182.283 278.802 182.283 278.454 181.931C272.469 175.903 264.495 172.584 256.001 172.584C247.507 172.584 239.533 175.903 233.548 181.931C233.199 182.283 232.779 182.283 232.431 181.931C226.54 175.999 218.722 172.697 210.378 172.593C210.341 172.592 210.303 172.592 210.265 172.591C210.168 172.59 210.073 172.584 209.977 172.584C201.482 172.584 193.509 175.903 187.524 181.931C187.175 182.283 186.755 182.283 186.407 181.931C180.422 175.903 172.448 172.584 163.954 172.584C163.926 172.584 163.9 172.586 163.872 172.586C163.834 172.586 163.796 172.588 163.758 172.588C155.337 172.639 147.44 175.949 141.5 181.931C141.151 182.283 140.731 182.283 140.383 181.931C134.473 175.978 126.621 172.672 118.246 172.592C118.185 172.59 118.123 172.589 118.062 172.587C118.018 172.587 117.975 172.584 117.931 172.584C111.901 172.584 106.033 174.289 100.963 177.515C98.232 179.252 95.845 181.414 93.839 183.874C92.787 183.446 92.044 182.415 92.044 181.213C92.044 179.627 93.334 178.337 94.92 178.337C99.687 178.337 103.549 174.473 103.549 169.708C103.549 169.126 103.712 168.59 104.032 168.112C105.522 165.895 105.902 163.112 105.059 160.576C104.216 158.04 102.247 156.038 99.724 155.155C98.764 154.819 97.796 153.851 97.796 152.449C97.796 151.046 98.765 150.08 99.724 149.743C102.246 148.859 104.216 146.857 105.059 144.322C105.901 141.786 105.522 139.003 104.032 136.786C103.712 136.309 103.549 135.772 103.549 135.19C103.549 130.424 99.687 126.561 94.92 126.561C93.333 126.561 92.044 125.27 92.044 123.685C92.044 122.099 93.334 120.809 94.92 120.809C99.687 120.809 103.549 116.945 103.549 112.18C103.549 107.415 99.687 103.551 94.92 103.551C83.818 103.551 74.785 112.584 74.785 123.686C74.785 130.885 78.584 137.214 84.282 140.775C81.903 144.11 80.538 148.166 80.538 152.45C80.538 156.734 81.903 160.79 84.282 164.125C78.584 167.685 74.785 174.014 74.785 181.214C74.785 189.51 79.83 196.646 87.012 199.726C86.546 203.14 86.601 206.66 87.273 210.158L140.384 486.336C143.248 501.207 156.315 512 171.458 512H175.414C175.427 512 175.439 512.001 175.452 512.001C175.465 512.001 175.477 512 175.49 512H201.901C201.906 512 201.909 512 201.912 512C201.915 512 201.919 512 201.921 512H310.077C310.08 512 310.084 512 310.086 512C310.091 512 310.094 512 310.098 512H336.509C336.522 512 336.534 512.001 336.547 512.001C336.56 512.001 336.572 512 336.585 512H340.541C355.685 512 368.753 501.207 371.613 486.334L424.724 210.157C425.626 205.475 422.562 200.952 417.881 200.052ZM157.335 483.073L104.224 206.897C103.098 201.035 105.51 195.078 110.231 192.076C110.491 191.91 110.757 191.757 111.026 191.609L164.868 493.121C161.054 491.146 158.189 487.515 157.335 483.073ZM247.371 494.739H237.659L231.865 399.294C231.576 394.538 227.479 390.916 222.73 391.203C217.972 391.492 214.35 395.582 214.639 400.34L220.369 494.739H209.596L198.289 398.808C197.732 394.076 193.438 390.691 188.709 391.249C183.977 391.807 180.591 396.095 181.15 400.829L192.218 494.741H182.686L129.167 195.03C132.455 197.881 136.581 199.45 140.945 199.45C145.772 199.45 150.319 197.546 153.751 194.09C154.594 193.241 155.533 192.525 156.53 191.921L174.372 343.301C174.889 347.69 178.616 350.921 182.93 350.921C183.267 350.921 183.609 350.9 183.952 350.86C188.684 350.302 192.07 346.014 191.511 341.28L174.164 194.09C177.595 197.545 182.142 199.449 186.969 199.449C191.796 199.449 196.343 197.545 199.775 194.089C200.464 193.395 201.212 192.782 202.006 192.25L211.147 342.812C211.425 347.391 215.226 350.918 219.752 350.918C219.927 350.918 220.105 350.913 220.282 350.902C225.04 350.613 228.662 346.523 228.373 341.765L219.361 193.335C219.642 193.578 219.921 193.822 220.185 194.087C223.616 197.543 228.164 199.447 232.991 199.447C237.818 199.447 242.365 197.543 245.797 194.087C246.291 193.59 246.823 193.148 247.373 192.733V494.739H247.371ZM329.316 494.739H319.784L330.852 400.827C331.41 396.094 328.025 391.805 323.293 391.247C318.584 390.689 314.27 394.073 313.713 398.806L302.405 494.738H291.632L297.363 400.339C297.652 395.581 294.03 391.491 289.272 391.202C284.534 390.914 280.427 394.535 280.137 399.293L274.342 494.738H264.63V192.736C265.18 193.15 265.713 193.593 266.206 194.09C269.637 197.545 274.184 199.449 279.012 199.449C283.839 199.449 288.386 197.545 291.818 194.089C292.081 193.823 292.362 193.579 292.642 193.336L283.63 341.766C283.341 346.524 286.963 350.614 291.721 350.903C291.898 350.913 292.075 350.919 292.251 350.919C296.778 350.919 300.578 347.391 300.856 342.813L309.997 192.251C310.791 192.783 311.539 193.396 312.228 194.09C315.659 197.546 320.207 199.45 325.034 199.45C329.861 199.45 334.408 197.546 337.839 194.091L320.492 341.281C319.934 346.014 323.319 350.303 328.051 350.861C328.395 350.901 328.734 350.922 329.073 350.922C333.386 350.922 337.114 347.691 337.631 343.302L355.473 191.922C356.471 192.526 357.408 193.242 358.252 194.091C361.683 197.547 366.231 199.451 371.058 199.451C375.422 199.451 379.548 197.882 382.836 195.029L329.316 494.739Z" fill="white"/>
</g>
</g>
<g id="Group_7">
<g id="Group_8">
<path id="Vector_4" d="M198.472 388.312C208.003 388.312 215.73 380.585 215.73 371.054C215.73 361.523 208.003 353.796 198.472 353.796C188.941 353.796 181.214 361.523 181.214 371.054C181.214 380.585 188.941 388.312 198.472 388.312Z" fill="white"/>
</g>
</g>
<g id="Group_9">
<g id="Group_10">
<path id="Vector_5" d="M313.528 388.312C323.059 388.312 330.786 380.585 330.786 371.054C330.786 361.523 323.059 353.796 313.528 353.796C303.997 353.796 296.27 361.523 296.27 371.054C296.27 380.585 303.997 388.312 313.528 388.312Z" fill="white"/>
</g>
</g>
<g id="Group_11">
<g id="Group_12">
<path id="Vector_6" d="M171.227 104.907C168.306 97.388 160.99 92.044 152.451 92.044C143.912 92.044 136.596 97.388 133.675 104.907C126.156 107.829 120.811 115.145 120.811 123.684C120.811 132.223 126.157 139.539 133.675 142.461C136.596 149.98 143.912 155.324 152.451 155.324C157.218 155.324 161.08 151.46 161.08 146.695C161.08 141.93 157.218 138.066 152.451 138.066C150.864 138.066 149.575 136.775 149.575 135.19C149.575 130.424 145.713 126.561 140.946 126.561C139.359 126.561 138.07 125.27 138.07 123.685C138.07 122.1 139.36 120.809 140.946 120.809C145.713 120.809 149.575 116.945 149.575 112.18C149.575 110.595 150.865 109.304 152.451 109.304C154.037 109.304 155.327 110.595 155.327 112.18C155.327 116.946 159.189 120.809 163.956 120.809C165.543 120.809 166.832 122.1 166.832 123.685C166.832 128.451 170.694 132.314 175.461 132.314C180.228 132.314 184.09 128.45 184.09 123.685C184.091 115.145 178.746 107.829 171.227 104.907Z" fill="white"/>
</g>
</g>
<g id="Group_13">
<g id="Group_14">
<path id="Vector_7" d="M221.484 69.032C216.717 69.032 212.855 72.896 212.855 77.661C212.855 79.247 211.565 80.537 209.979 80.537C205.212 80.537 201.35 84.401 201.35 89.166C201.35 90.751 200.06 92.042 198.474 92.042C196.887 92.042 195.598 90.751 195.598 89.166C195.598 84.4 191.736 80.537 186.969 80.537C185.382 80.537 184.093 79.246 184.093 77.661C184.093 76.076 185.383 74.785 186.969 74.785C191.736 74.785 195.598 70.921 195.598 66.156C195.598 64.57 196.888 63.28 198.474 63.28C203.241 63.28 207.103 59.416 207.103 54.651C207.103 49.886 203.241 46.022 198.474 46.022C189.935 46.022 182.619 51.366 179.698 58.885C172.179 61.807 166.834 69.123 166.834 77.662C166.834 86.201 172.18 93.517 179.698 96.439C182.618 103.958 189.935 109.302 198.474 109.302C207.013 109.302 214.329 103.958 217.25 96.439C224.769 93.517 230.114 86.201 230.114 77.662C230.114 72.896 226.251 69.032 221.484 69.032Z" fill="white"/>
</g>
</g>
<g id="Group_15">
<g id="Group_16">
<path id="Vector_8" d="M286.283 127.918C283.362 120.399 276.046 115.055 267.507 115.055C258.968 115.055 251.652 120.399 248.731 127.918C241.212 130.84 235.867 138.156 235.867 146.695C235.867 157.797 244.9 166.83 256.002 166.83C260.769 166.83 264.631 162.966 264.631 158.201C264.631 153.436 260.769 149.572 256.002 149.572C254.415 149.572 253.126 148.281 253.126 146.696C253.126 145.111 254.416 143.82 256.002 143.82C260.769 143.82 264.631 139.956 264.631 135.191C264.631 133.605 265.921 132.315 267.507 132.315C269.093 132.315 270.383 133.606 270.383 135.191C270.383 139.957 274.245 143.82 279.012 143.82C280.599 143.82 281.888 145.111 281.888 146.696C281.888 148.281 280.598 149.572 279.012 149.572C274.245 149.572 270.383 153.436 270.383 158.201C270.383 162.966 274.245 166.83 279.012 166.83C290.114 166.83 299.147 157.797 299.147 146.695C299.147 138.156 293.802 130.84 286.283 127.918Z" fill="white"/>
</g>
</g>
<g id="Group_17">
<g id="Group_18">
<path id="Vector_9" d="M279.012 34.516C274.245 34.516 270.383 38.38 270.383 43.145C270.383 47.911 274.245 51.774 279.012 51.774C280.599 51.774 281.888 53.065 281.888 54.65C281.888 56.236 280.598 57.526 279.012 57.526C274.245 57.526 270.383 61.39 270.383 66.155C270.383 67.74 269.093 69.031 267.507 69.031C265.921 69.031 264.631 67.74 264.631 66.155C264.631 61.389 260.769 57.526 256.002 57.526C254.415 57.526 253.126 56.235 253.126 54.65C253.126 53.065 254.416 51.774 256.002 51.774C260.769 51.774 264.631 47.91 264.631 43.145C264.631 38.379 260.769 34.516 256.002 34.516C244.9 34.516 235.867 43.549 235.867 54.651C235.867 63.19 241.213 70.506 248.731 73.428C251.651 80.947 258.968 86.291 267.507 86.291C276.046 86.291 283.362 80.947 286.283 73.428C293.802 70.506 299.147 63.19 299.147 54.651C299.147 43.549 290.114 34.516 279.012 34.516Z" fill="white"/>
</g>
</g>
<g id="Group_19">
<g id="Group_20">
<path id="Vector_10" d="M394.068 115.055C389.301 115.055 385.439 118.919 385.439 123.684C385.439 125.269 384.149 126.56 382.563 126.56C377.796 126.56 373.934 130.424 373.934 135.189C373.934 136.774 372.644 138.065 371.058 138.065C369.471 138.065 368.182 136.774 368.182 135.189C368.182 130.423 364.32 126.56 359.553 126.56C357.966 126.56 356.677 125.269 356.677 123.684C356.677 122.099 357.967 120.808 359.553 120.808C364.32 120.808 368.182 116.944 368.182 112.179C368.182 110.594 369.472 109.303 371.058 109.303C375.825 109.303 379.687 105.439 379.687 100.674C379.687 95.908 375.825 92.045 371.058 92.045C362.519 92.045 355.203 97.389 352.282 104.908C344.763 107.83 339.418 115.146 339.418 123.685C339.418 132.224 344.763 139.54 352.282 142.462C355.203 149.981 362.519 155.325 371.058 155.325C379.597 155.325 386.913 149.981 389.834 142.462C397.353 139.54 402.698 132.224 402.698 123.685C402.697 118.918 398.835 115.055 394.068 115.055Z" fill="white"/>
</g>
</g>
</g>
<defs>
<filter id="filter0_d" x="-4" y="0" width="519.999" height="519.999" filterUnits="userSpaceOnUse" color-interpolation-filters="sRGB">
<feFlood flood-opacity="0" result="BackgroundImageFix"/>
<feColorMatrix in="SourceAlpha" type="matrix" values="0 0 0 0 0 0 0 0 0 0 0 0 0 0 0 0 0 0 127 0" result="hardAlpha"/>
<feOffset dy="4"/>
<feGaussianBlur stdDeviation="2"/>
<feComposite in2="hardAlpha" operator="out"/>
<feColorMatrix type="matrix" values="0 0 0 0 0 0 0 0 0 0 0 0 0 0 0 0 0 0 0.25 0"/>
<feBlend mode="normal" in2="BackgroundImageFix" result="effect1_dropShadow"/>
<feBlend mode="normal" in="SourceGraphic" in2="effect1_dropShadow" result="shape"/>
</filter>
<clipPath id="clip0">
<rect width="511.999" height="511.999" fill="white"/>
</clipPath>
</defs>
</svg>
