<svg width="81" height="81" viewBox="0 0 81 81" fill="none" xmlns="http://www.w3.org/2000/svg">
<g id="search 1">
<path id="Vector" d="M12.231 50.625C16.9045 55.3051 23.1281 58.1146 29.7294 58.5243C36.3306 58.9339 42.8538 56.9155 48.0701 52.8491L66.0184 70.7974C66.6549 71.4122 67.5074 71.7523 68.3923 71.7446C69.2773 71.737 70.1238 71.382 70.7495 70.7563C71.3753 70.1305 71.7302 69.284 71.7379 68.3991C71.7456 67.5142 71.4054 66.6617 70.7906 66.0251L52.8424 48.0769C57.0891 42.6268 59.0969 35.762 58.4563 28.8825C57.8156 22.0029 54.5748 15.6269 49.3947 11.0547C44.2147 6.48246 37.4856 4.05847 30.5797 4.27705C23.6739 4.49564 17.1115 7.34033 12.231 12.231C9.70919 14.7515 7.7087 17.7442 6.34384 21.0381C4.97897 24.332 4.27647 27.8625 4.27647 31.428C4.27647 34.9935 4.97897 38.524 6.34384 41.8179C7.7087 45.1118 9.70919 48.1045 12.231 50.625V50.625ZM17.0032 17.01C20.3397 13.6736 24.7297 11.5973 29.4254 11.1348C34.121 10.6723 38.8318 11.8521 42.755 14.4734C46.6783 17.0947 49.5713 20.9952 50.9412 25.5103C52.3111 30.0255 52.0731 34.8759 50.2678 39.2352C48.4625 43.5946 45.2015 47.1931 41.0404 49.4177C36.8794 51.6423 32.0757 52.3554 27.4479 51.4354C22.8201 50.5154 18.6544 48.0192 15.6607 44.3723C12.6669 40.7253 11.0302 36.1531 11.0295 31.4347C11.0202 28.7536 11.5435 26.0972 12.569 23.6199C13.5945 21.1425 15.1017 18.8935 17.0032 17.0032V17.01Z" fill="white"/>
</g>
</svg>
