<svg xmlns="http://www.w3.org/2000/svg" width="100" height="100" viewBox="0 0 195 240"><g transform="translate(-1603 -3706.837)"><g transform="translate(1629 3706.837)" fill="none" stroke="#411fd1" stroke-width="6"><rect width="169" height="222" rx="12" stroke="none"/><rect x="3" y="3" width="163" height="216" rx="9" fill="none"/></g><g transform="translate(1606 3804.837)" fill="#050314" stroke="#707070" stroke-width="1"><rect width="70" height="138" rx="8" stroke="none"/><rect x="0.5" y="0.5" width="69" height="137" rx="7.5" fill="none"/></g><g transform="translate(1603 3801.57)"><g transform="translate(0 0)"><path d="M64.445,0H10.627A10.638,10.638,0,0,0,0,10.626V134.64a10.638,10.638,0,0,0,10.626,10.627H64.444a10.638,10.638,0,0,0,10.627-10.626V10.627A10.638,10.638,0,0,0,64.445,0ZM70.2,134.641a5.752,5.752,0,0,1-5.752,5.752H10.627a5.752,5.752,0,0,1-5.752-5.752V10.627a5.752,5.752,0,0,1,5.752-5.752h8.5a2.292,2.292,0,0,1,2.242,1.82l.475,2.257A3.461,3.461,0,0,0,25.233,11.7H50.326A3.461,3.461,0,0,0,53.713,8.95l.475-2.256a2.292,2.292,0,0,1,2.243-1.819h8.014A5.752,5.752,0,0,1,70.2,10.626Z" fill="#411fd1"/></g></g></g></svg>